<svg width="24" height="24" viewBox="0 0 24 24" fill="none" xmlns="http://www.w3.org/2000/svg">
<path d="M7.00005 14C6.56353 14.0007 6.13242 14.0966 5.73679 14.281C5.34117 14.4655 4.99056 14.734 4.70944 15.068C4.42833 15.4019 4.22347 15.7932 4.10918 16.2145C3.99488 16.6358 3.9739 17.0769 4.0477 17.5072C4.12149 17.9374 4.28829 18.3463 4.53644 18.7055C4.7846 19.0646 5.10813 19.3652 5.48447 19.5864C5.8608 19.8076 6.28087 19.944 6.71535 19.986C7.14984 20.0281 7.58827 19.9749 8.00005 19.83" stroke="white" stroke-width="1.5" stroke-linecap="round" stroke-linejoin="round"/>
<path d="M4.26404 15.6051C3.6656 15.317 3.14832 14.8844 2.75889 14.3464C2.36945 13.8083 2.12012 13.1818 2.03339 12.5233C1.94667 11.8648 2.02527 11.1951 2.26212 10.5746C2.49897 9.95408 2.8866 9.40231 3.39004 8.96908M3.42004 8.88808C3.09208 8.39733 2.94834 7.80637 3.01426 7.21981C3.08018 6.63326 3.35151 6.08894 3.78021 5.68323C4.20892 5.27751 4.76735 5.03657 5.35664 5.00305C5.94594 4.96953 6.52809 5.1456 7.00004 5.50008M7.23804 5.56508C7.07851 5.22612 6.9972 4.85565 7.00011 4.48104C7.00303 4.10644 7.09009 3.73727 7.25487 3.40084C7.41965 3.06441 7.65793 2.76931 7.9521 2.53735C8.24627 2.3054 8.58881 2.14252 8.9544 2.06076C9.31999 1.979 9.69928 1.98044 10.0642 2.06498C10.4292 2.14953 10.7705 2.31501 11.0629 2.5492C11.3553 2.78338 11.5913 3.08029 11.7535 3.41797C11.9157 3.75564 12 4.12546 12 4.50008M12 4.50008V20.0001M12 4.50008C12.0001 4.12546 12.0843 3.75564 12.2466 3.41797C12.4088 3.08029 12.6448 2.78338 12.9372 2.5492C13.2296 2.31501 13.5709 2.14953 13.9358 2.06498C14.3008 1.98044 14.6801 1.979 15.0457 2.06076C15.4113 2.14252 15.7538 2.3054 16.048 2.53735C16.3421 2.76931 16.5804 3.06441 16.7452 3.40084C16.91 3.73727 16.997 4.10644 17 4.48104C17.0029 4.85565 16.9216 5.22612 16.762 5.56508M12 20.0001C12 20.5305 11.7893 21.0392 11.4142 21.4143C11.0392 21.7894 10.5305 22.0001 10 22.0001C9.4696 22.0001 8.9609 21.7894 8.58582 21.4143C8.21075 21.0392 8.00004 20.5305 8.00004 20.0001M12 20.0001C12 20.5305 12.2107 21.0392 12.5858 21.4143C12.9609 21.7894 13.4696 22.0001 14 22.0001M12 7.00008C12 7.79573 12.3161 8.55879 12.8787 9.1214C13.4413 9.68401 14.2044 10.0001 15 10.0001M20.61 8.96908C21.0466 9.34414 21.3969 9.80923 21.6368 10.3324C21.8768 10.8556 22.0007 11.4245 22 12.0001C22 12.7031 21.819 13.3641 21.5 13.9381M20.58 8.88808C20.908 8.39733 21.0517 7.80637 20.9858 7.21981C20.9199 6.63326 20.6486 6.08894 20.2199 5.68323C19.7912 5.27751 19.2327 5.03657 18.6434 5.00305C18.0541 4.96953 17.472 5.1456 17 5.50008M18.667 16.0001L17 19.0001H21L19.333 22.0001" stroke="white" stroke-width="1.5" stroke-linecap="round" stroke-linejoin="round"/>
</svg>
