<svg width="22" height="22" viewBox="0 0 22 22" fill="none" xmlns="http://www.w3.org/2000/svg">
<path d="M3.26404 14.6051C2.6656 14.317 2.14832 13.8844 1.75889 13.3464C1.36945 12.8083 1.12012 12.1818 1.03339 11.5233C0.946667 10.8648 1.02527 10.1951 1.26212 9.57459C1.49897 8.95408 1.8866 8.40231 2.39004 7.96908M2.42004 7.88808C2.09208 7.39733 1.94834 6.80637 2.01426 6.21981C2.08018 5.63326 2.35151 5.08894 2.78021 4.68323C3.20892 4.27751 3.76735 4.03657 4.35664 4.00305C4.94594 3.96953 5.52809 4.1456 6.00004 4.50008M6.23804 4.56508C6.07851 4.22612 5.9972 3.85565 6.00011 3.48104C6.00303 3.10644 6.09009 2.73727 6.25487 2.40084C6.41965 2.06441 6.65793 1.76931 6.9521 1.53735C7.24627 1.3054 7.58881 1.14252 7.9544 1.06076C8.31999 0.978996 8.69928 0.98044 9.06423 1.06498C9.42919 1.14953 9.77048 1.31501 10.0629 1.5492C10.3553 1.78338 10.5913 2.08029 10.7535 2.41797C10.9157 2.75564 11 3.12546 11 3.50008M11 3.50008V19.0001M11 3.50008C11.0001 3.12546 11.0843 2.75564 11.2466 2.41797C11.4088 2.08029 11.6448 1.78338 11.9372 1.5492C12.2296 1.31501 12.5709 1.14953 12.9358 1.06498C13.3008 0.98044 13.6801 0.978996 14.0457 1.06076C14.4113 1.14252 14.7538 1.3054 15.048 1.53735C15.3421 1.76931 15.5804 2.06441 15.7452 2.40084C15.91 2.73727 15.997 3.10644 16 3.48104C16.0029 3.85565 15.9216 4.22612 15.762 4.56508M11 19.0001C11 19.5305 10.7893 20.0392 10.4142 20.4143C10.0392 20.7894 9.53047 21.0001 9.00004 21.0001C8.4696 21.0001 7.9609 20.7894 7.58582 20.4143C7.21075 20.0392 7.00004 19.5305 7.00004 19.0001M11 19.0001C11 19.5305 11.2107 20.0392 11.5858 20.4143C11.9609 20.7894 12.4696 21.0001 13 21.0001M11 6.00008C11 6.79573 11.3161 7.55879 11.8787 8.1214C12.4413 8.68401 13.2044 9.00008 14 9.00008M19.61 7.96908C20.0466 8.34414 20.3969 8.80923 20.6368 9.33241C20.8768 9.8556 21.0007 10.4245 21 11.0001C21 11.7031 20.819 12.3641 20.5 12.9381M19.58 7.88808C19.908 7.39733 20.0517 6.80637 19.9858 6.21981C19.9199 5.63326 19.6486 5.08894 19.2199 4.68323C18.7912 4.27751 18.2327 4.03657 17.6434 4.00305C17.0541 3.96953 16.472 4.1456 16 4.50008M17.667 15.0001L16 18.0001H20L18.333 21.0001" stroke="white" stroke-width="1.5" stroke-linecap="round" stroke-linejoin="round"/>
</svg>
