<svg width="37" height="36" viewBox="0 0 37 36" fill="none" xmlns="http://www.w3.org/2000/svg">
<path d="M12.0249 3H24.9749C29.9083 3 33.9166 6.9 33.9166 11.7V24.3C33.9166 26.6074 32.9745 28.8203 31.2976 30.4518C29.6207 32.0834 27.3464 33 24.9749 33H12.0249C7.09159 33 3.08325 29.1 3.08325 24.3V11.7C3.08325 9.39262 4.02532 7.17974 5.70221 5.54817C7.37909 3.9166 9.65344 3 12.0249 3ZM11.7166 6C10.2446 6 8.83297 6.56893 7.79214 7.58162C6.75132 8.59432 6.16659 9.96783 6.16659 11.4V24.6C6.16659 27.585 8.64867 30 11.7166 30H25.2833C26.7552 30 28.1669 29.4311 29.2077 28.4184C30.2485 27.4057 30.8333 26.0322 30.8333 24.6V11.4C30.8333 8.415 28.3512 6 25.2833 6H11.7166ZM26.5937 8.25C27.1048 8.25 27.5949 8.44754 27.9563 8.79917C28.3177 9.1508 28.5208 9.62772 28.5208 10.125C28.5208 10.6223 28.3177 11.0992 27.9563 11.4508C27.5949 11.8025 27.1048 12 26.5937 12C26.0826 12 25.5924 11.8025 25.231 11.4508C24.8696 11.0992 24.6666 10.6223 24.6666 10.125C24.6666 9.62772 24.8696 9.1508 25.231 8.79917C25.5924 8.44754 26.0826 8.25 26.5937 8.25ZM18.4999 10.5C20.5443 10.5 22.5049 11.2902 23.9505 12.6967C25.3961 14.1032 26.2083 16.0109 26.2083 18C26.2083 19.9891 25.3961 21.8968 23.9505 23.3033C22.5049 24.7098 20.5443 25.5 18.4999 25.5C16.4555 25.5 14.4949 24.7098 13.0493 23.3033C11.6037 21.8968 10.7916 19.9891 10.7916 18C10.7916 16.0109 11.6037 14.1032 13.0493 12.6967C14.4949 11.2902 16.4555 10.5 18.4999 10.5ZM18.4999 13.5C17.2733 13.5 16.0969 13.9741 15.2295 14.818C14.3622 15.6619 13.8749 16.8065 13.8749 18C13.8749 19.1935 14.3622 20.3381 15.2295 21.182C16.0969 22.0259 17.2733 22.5 18.4999 22.5C19.7265 22.5 20.9029 22.0259 21.7703 21.182C22.6376 20.3381 23.1249 19.1935 23.1249 18C23.1249 16.8065 22.6376 15.6619 21.7703 14.818C20.9029 13.9741 19.7265 13.5 18.4999 13.5Z" fill="white"/>
</svg>
