<svg width="25" height="25" viewBox="0 0 25 25" fill="none" xmlns="http://www.w3.org/2000/svg">
<path d="M8.12467 2.08325H16.8747C20.208 2.08325 22.9163 4.79159 22.9163 8.12492V16.8749C22.9163 18.4773 22.2798 20.014 21.1468 21.147C20.0137 22.2801 18.477 22.9166 16.8747 22.9166H8.12467C4.79134 22.9166 2.08301 20.2083 2.08301 16.8749V8.12492C2.08301 6.52257 2.71954 4.98585 3.85257 3.85282C4.9856 2.71978 6.52233 2.08325 8.12467 2.08325ZM7.91634 4.16659C6.92178 4.16659 5.96795 4.56167 5.26469 5.26493C4.56143 5.9682 4.16634 6.92202 4.16634 7.91658V17.0833C4.16634 19.1562 5.84342 20.8333 7.91634 20.8333H17.083C18.0776 20.8333 19.0314 20.4382 19.7347 19.7349C20.4379 19.0316 20.833 18.0778 20.833 17.0833V7.91658C20.833 5.84367 19.1559 4.16659 17.083 4.16659H7.91634ZM17.9684 5.72909C18.3138 5.72909 18.6449 5.86627 18.8891 6.11046C19.1333 6.35464 19.2705 6.68583 19.2705 7.03117C19.2705 7.3765 19.1333 7.70769 18.8891 7.95188C18.6449 8.19607 18.3138 8.33325 17.9684 8.33325C17.6231 8.33325 17.2919 8.19607 17.0477 7.95188C16.8035 7.70769 16.6663 7.3765 16.6663 7.03117C16.6663 6.68583 16.8035 6.35464 17.0477 6.11046C17.2919 5.86627 17.6231 5.72909 17.9684 5.72909ZM12.4997 7.29158C13.881 7.29158 15.2058 7.84032 16.1825 8.81707C17.1593 9.79382 17.708 11.1186 17.708 12.4999C17.708 13.8813 17.1593 15.206 16.1825 16.1828C15.2058 17.1595 13.881 17.7083 12.4997 17.7083C11.1183 17.7083 9.79358 17.1595 8.81683 16.1828C7.84007 15.206 7.29134 13.8813 7.29134 12.4999C7.29134 11.1186 7.84007 9.79382 8.81683 8.81707C9.79358 7.84032 11.1183 7.29158 12.4997 7.29158ZM12.4997 9.37492C11.6709 9.37492 10.876 9.70416 10.29 10.2902C9.70391 10.8763 9.37467 11.6711 9.37467 12.4999C9.37467 13.3287 9.70391 14.1236 10.29 14.7096C10.876 15.2957 11.6709 15.6249 12.4997 15.6249C13.3285 15.6249 14.1233 15.2957 14.7094 14.7096C15.2954 14.1236 15.6247 13.3287 15.6247 12.4999C15.6247 11.6711 15.2954 10.8763 14.7094 10.2902C14.1233 9.70416 13.3285 9.37492 12.4997 9.37492Z" fill="url(#paint0_linear_103_941)"/>
<defs>
<linearGradient id="paint0_linear_103_941" x1="12.4997" y1="40.1162" x2="12.4997" y2="-6.87992" gradientUnits="userSpaceOnUse">
<stop stop-color="#34FBFB"/>
<stop offset="1" stop-color="#3D7AD3"/>
</linearGradient>
</defs>
</svg>
